<svg id="Layer_1" data-name="Layer 1" xmlns="http://www.w3.org/2000/svg" viewBox="0 0 150 150"><defs><style>.cls-1{fill:#eb4a32;}</style></defs><title>Cloud</title><path class="cls-1" d="M113.39,39a23.29,23.29,0,0,0-6.64,1,35.13,35.13,0,0,0-68.48,7.36,19.57,19.57,0,1,0-5.44,38.36v-3A16.57,16.57,0,1,1,38.26,50.5l.84.32,2,.8V49.16A32.13,32.13,0,0,1,103.93,41,23.49,23.49,0,0,0,90,62.38h3a20.35,20.35,0,1,1,20.36,20.34v3a23.35,23.35,0,0,0,0-46.69Z"/><path class="cls-1" d="M37.05,116.36V98.49a4.5,4.5,0,0,1,4.5-4.5h26.2V91H41.55a7.51,7.51,0,0,0-7.5,7.5v17.76a9.16,9.16,0,1,0,3,.11Zm-1.86,15.18a6.19,6.19,0,1,1,6.19-6.18A6.18,6.18,0,0,1,35.19,131.54Z"/><path class="cls-1" d="M75.25,116.31V100h-3v16.33a9.18,9.18,0,1,0,3,0Zm-1.5,15.23a6.19,6.19,0,1,1,6.18-6.18A6.19,6.19,0,0,1,73.75,131.54Z"/><path class="cls-1" d="M113.46,116.25V98.49A7.52,7.52,0,0,0,106,91H79.75a4.51,4.51,0,0,1-4.5-4.5V57l6.15,6.16L83.52,61l-9.77-9.77L64,61l2.12,2.13L72.25,57V86.49a7.5,7.5,0,0,0,7.5,7.5H106a4.51,4.51,0,0,1,4.5,4.5v17.87a9.2,9.2,0,1,0,3-.11Zm-1.15,15.29a6.19,6.19,0,1,1,6.18-6.18A6.19,6.19,0,0,1,112.31,131.54Z"/></svg>